<svg width="4800" height="1600" viewBox="0 0 4800 1600" fill="none" xmlns="http://www.w3.org/2000/svg">
<path d="M1176.99 232.624C1288.56 291.609 1399.26 350.155 1509.62 408.514C1511.03 419.653 1511.56 1164.84 1510.25 1189.99C1510.08 1190.37 1509.97 1190.8 1509.72 1191.12C1509.47 1191.46 1509.11 1191.75 1508.74 1191.97C1506.49 1193.29 1504.27 1194.66 1501.97 1195.88C1260.57 1323.61 1019.17 1451.34 778.493 1578.67C777.14 1578.67 776.705 1578.7 776.273 1578.66C775.844 1578.63 775.361 1578.65 775.001 1578.46C532.032 1449.96 289.07 1321.44 46.1228 1192.9C45.0078 1192.31 44.0975 1191.33 43 1190.46C43 930.156 43 669.867 43 409.008C287.508 279.666 531.952 150.358 776.489 21C783.267 24.4683 789.466 27.5482 795.583 30.7834C919.76 96.4587 1043.93 162.151 1168.1 227.845C1170.78 229.267 1173.45 230.738 1176.99 232.624ZM1432.69 451.678C1387.74 427.854 1342.81 404.005 1297.85 380.212C1133.75 293.374 969.639 206.552 805.526 119.738C795.957 114.676 786.317 109.745 777.501 105.163C775.55 105.545 774.602 105.517 773.873 105.902C559.011 219.506 344.163 333.138 129.321 446.78C125.48 448.811 121.706 450.97 117.908 453.084C117.532 453.293 117.149 453.553 116.883 453.881C116.626 454.198 116.515 454.634 115.811 456.179C115.811 458.473 115.81 461.939 115.811 465.406C115.89 691.721 115.969 918.035 116.064 1144.35C116.064 1144.77 116.262 1145.2 116.443 1145.59C116.614 1145.97 116.885 1146.29 117.647 1147.46C336.68 1263.32 556.434 1379.64 776.462 1495.94C996.853 1379.35 1216.65 1263.07 1437.06 1146.47C1437.06 1141.56 1437.06 1136.81 1437.06 1132.06C1437.06 910.967 1437.06 689.871 1437.06 468.775C1437.06 464.859 1437.19 460.923 1436.83 457.037C1436.69 455.547 1435.34 454.169 1432.69 451.678Z" fill="#FBBB59"/>
<path d="M882.331 702.268C989.842 659.146 1096.44 616.449 1203.05 573.776C1208.23 571.701 1213.5 569.83 1219.13 567.71C1242.5 597.444 1273.01 612.877 1309.99 614.991C1312.81 619.936 1311.63 624.832 1311.64 629.497C1311.74 680.86 1311.7 732.222 1311.7 783.585C1311.7 880.216 1311.7 976.848 1311.7 1073.48C1311.7 1078.69 1311.7 1083.89 1311.7 1088.43C1310.91 1089.44 1310.65 1089.79 1310.37 1090.12C1310.09 1090.45 1309.84 1090.88 1309.48 1091.05C1169.62 1158.44 1029.75 1225.8 889.867 1293.14C887.53 1294.27 885.041 1295.08 882.453 1296.1C876.003 1287.22 869.941 1278.27 863.232 1269.82C856.413 1261.24 847.952 1254.22 838.417 1248.88C828.98 1243.59 819.049 1239.18 808.298 1233.87C808.113 1231.55 807.608 1228.16 807.607 1224.76C807.568 1083.3 807.572 941.835 807.589 800.37C807.589 797.784 807.807 795.198 807.962 791.737C823.645 784.266 837.591 774.269 847.523 759.366C857.222 744.81 861.388 728.608 862.399 711.156C868.281 707.056 875.133 705.478 882.331 702.268Z" fill="#00C1CA"/>
<path d="M746.915 1131.9C746.915 1166.26 746.915 1199.32 746.915 1232.7C744.407 1234.04 742.292 1235.56 739.937 1236.38C712.534 1245.95 691.567 1263.33 676.673 1288.17C675.365 1290.35 673.845 1292.4 672.543 1294.34C663.516 1292.41 610.799 1267.58 529.385 1227.71C481.751 1204.39 433.776 1181.76 385.972 1158.79C338.58 1136.01 291.21 1113.19 244.919 1090.91C243.94 1089.35 243.678 1089.01 243.503 1088.63C243.323 1088.23 243.126 1087.81 243.11 1087.39C242.975 1083.91 242.786 1080.44 242.788 1076.96C242.84 924.235 242.91 771.505 243.01 618.775C243.011 617.964 243.478 617.153 244.013 615.41C261.172 613.371 278.562 610.434 294.591 602.137C310.668 593.815 324.075 582.373 334.928 568.648C348.404 572.467 682.572 706.456 692.062 711.807C694.089 748.542 711.466 775.601 745.426 791.162C747.882 796.452 746.863 801.741 746.866 806.853C746.933 905.194 746.916 1003.53 746.916 1101.88C746.916 1111.45 746.916 1121.02 746.915 1131.9Z" fill="#00C1CA"/>
<path d="M481.622 562.151C439.942 545.477 399.21 529.142 357.834 512.549C359.437 491.984 356.278 472.45 348.706 453.771C351.719 449.517 356.243 448.765 360.099 447.085C403.549 428.156 447.038 409.318 490.528 390.481C573.515 354.537 656.51 318.61 739.499 282.671C749.075 278.524 758.762 274.604 768.164 270.091C774.122 267.231 779.262 267.23 785.436 270.03C808.399 280.443 831.636 290.25 854.772 300.281C966.47 348.709 1078.17 397.131 1189.86 445.579C1194.59 447.632 1199.22 449.932 1204.54 452.418C1198.14 471.425 1193.28 490.262 1195.9 509.795C1193.09 514.901 1187.96 515.518 1183.68 517.241C1134.08 537.24 1084.42 557.093 1034.78 576.987C974.242 601.247 913.707 625.513 853.163 649.756C848.772 651.514 844.312 653.099 839.349 654.966C821.573 637.897 801.058 627.752 776.192 627.945C751.837 628.134 731.675 638.059 714.056 655.149C636.56 624.413 559.679 593.163 481.622 562.151Z" fill="#00C1CA"/>
<path d="M195.911 528.677C188.191 514.577 186.605 500.747 190.853 486.198C198.33 460.586 223.747 444.223 250.293 448.056C276.36 451.82 295.347 474.006 296.154 500.388C296.814 521.936 283.332 543.911 261.24 552.028C239.394 560.055 214.781 553.23 200.055 534.922C198.697 533.234 197.602 531.334 195.911 528.677Z" fill="#01BFC8"/>
<path d="M754.965 1300.26C769.491 1294.97 783.159 1294.42 796.74 1299.66C820.085 1308.66 834.202 1333.86 829.918 1358.54C825.429 1384.39 803.993 1402.47 778.172 1403.48C755.824 1404.36 732.791 1389.99 725.506 1366.4C718.773 1344.6 724.488 1320.82 746.155 1305.31C748.617 1303.55 751.403 1302.24 754.965 1300.26Z" fill="#01BFC8"/>
<path d="M1318.56 448.025C1331.44 450.589 1341.66 455.657 1350.21 464.448C1368.55 483.31 1367.74 512.462 1357.07 529.696C1347.04 545.895 1325.58 560.654 1297.12 553.535C1272.37 547.346 1257.17 524.048 1257.12 501.705C1257.05 472.44 1281.44 447.718 1309.64 447.749C1312.25 447.751 1314.86 447.842 1318.56 448.025Z" fill="#01BFC8"/>
<path d="M814.042 689.891C819.27 698.291 821.037 706.539 821.174 715.461C821.488 735.919 804.351 756.477 781.952 758.546C754.287 761.102 736.939 742.333 732.965 723.252C728.379 701.234 741.615 679.037 762.935 671.92C781.099 665.856 803.648 673.367 814.042 689.891Z" fill="#01BEC7"/>
<path d="M2068.77 469.563C2079.69 439.732 2090.43 411.933 2099.73 383.658C2104.59 368.868 2113.79 361.327 2128.52 358.703C2157.81 353.488 2187.02 347.871 2216.31 342.647C2219.52 342.073 2223 342.979 2226.88 343.233C2238.85 359.278 2243.67 378.532 2250.68 396.536C2293.57 506.728 2335.78 617.185 2378.23 727.55C2420.99 838.712 2463.78 949.862 2506.51 1061.03C2515.98 1085.65 2525.61 1110.21 2534.54 1135.02C2538.98 1147.35 2546.87 1154.83 2559.35 1158.34C2575.73 1162.94 2592 1167.92 2608.25 1172.97C2616.33 1175.47 2624.24 1178.49 2633.38 1181.68C2634.09 1187.79 2635.4 1193.48 2635.21 1199.13C2635.04 1204.14 2632.87 1209.04 2632.13 1214.07C2626.93 1249.57 2621.1 1245.59 2592.08 1245.61C2488.23 1245.69 2384.39 1245.67 2280.54 1245.6C2271.32 1245.59 2261.92 1246.69 2251.95 1243.24C2249.79 1226.42 2254.12 1210.93 2259.39 1196C2261.03 1191.34 2267.43 1187.18 2272.59 1185.14C2290.77 1177.95 2309.35 1171.76 2327.79 1165.2C2338.12 1161.53 2348.96 1158.84 2357.6 1150.04C2355.88 1133.7 2348.82 1119.01 2343.73 1103.85C2332.35 1069.98 2320.28 1036.34 2308.49 1002.61C2307.09 998.589 2305.6 994.595 2304.38 990.522C2299.19 973.227 2293.97 969.84 2274.5 972.793C2253.63 975.957 2232.09 974.72 2210.84 975.325C2191.31 975.882 2171.74 974.694 2152.36 978.963C2145.02 980.58 2137.1 979.745 2129.45 979.778C2092.85 979.936 2056.25 979.983 2019.65 980.134C2012.84 980.162 2006.03 980.597 1999.23 980.65C1989.41 980.726 1983.42 985.878 1980.09 994.683C1978.58 998.66 1977.16 1002.67 1975.78 1006.69C1960.65 1050.96 1945.5 1095.22 1930.45 1139.52C1929.39 1142.62 1929.07 1145.97 1928.11 1150.63C1935.64 1153.63 1942.46 1156.78 1949.56 1159.09C1973.81 1166.98 1998.14 1174.6 2022.46 1182.28C2047.08 1190.06 2050.5 1192.02 2044.14 1217.95C2037.49 1245.05 2038.39 1245.56 2011.18 1245.59C1920.1 1245.7 1829.02 1245.59 1737.95 1245.67C1717.55 1245.69 1708.72 1246.81 1714.98 1218.04C1723.97 1176.74 1723.19 1184.07 1753.85 1172.87C1771.43 1166.44 1788.92 1159.75 1806.69 1153.89C1818.29 1150.06 1824.71 1142.55 1828.76 1131.26C1848.56 1076 1868.84 1020.9 1888.93 965.749C1913.98 897.005 1939.06 828.271 1964.06 759.51C1979.46 717.133 1994.8 674.728 2010.1 632.311C2029.43 578.687 2048.7 525.037 2068.77 469.563ZM2203.89 883.05C2222.76 881.295 2242.4 887 2260.82 878.828C2261.95 867.413 2257.35 858.977 2254.35 850.312C2227.29 772.355 2200.08 694.452 2172.86 616.553C2163.6 590.052 2154.28 563.57 2144.72 537.177C2143.14 532.82 2140.17 528.968 2136.12 521.849C2133.17 528.614 2131.19 532.125 2130.07 535.891C2124.74 553.826 2120.19 572.009 2114.38 589.779C2083.95 682.765 2053.2 775.642 2022.72 868.609C2021.53 872.228 2021.96 876.376 2021.41 883.027C2081.71 883.068 2140.27 883.044 2203.89 883.05Z" fill="white"/>
<path d="M3630.92 888.14C3646.46 795.843 3691.06 723.746 3766.1 671.851C3799.17 648.978 3836.75 634.811 3876.86 628.086C3901.29 623.989 3925.78 621.804 3950.5 623.047C3999.2 625.494 4044.31 638.797 4083.42 668.917C4122.71 699.17 4147.2 738.731 4157.57 787.328C4166.48 829.115 4163.31 870.188 4151.71 910.845C4149.65 918.062 4146.15 925.138 4142.02 931.427C4136.65 939.593 4128.58 944.307 4118.39 944.436C4110.73 944.533 4103.07 944.673 4095.41 944.674C4000.95 944.69 3906.48 944.63 3812.01 944.766C3802.04 944.78 3791.58 942.792 3782.73 948.442C3777.63 958.146 3779.42 967.474 3781.38 976.557C3788.42 1009.24 3799.59 1040.61 3817.23 1068.95C3837.2 1101.04 3862.31 1128.69 3896.82 1146.09C3913.75 1154.64 3931.84 1158.65 3950.89 1159.29C3978.32 1160.22 4005.21 1156.69 4031.8 1150.64C4055.85 1145.17 4079.73 1138.92 4103.67 1132.98C4107.79 1131.95 4111.82 1130.48 4115.97 1129.59C4128.09 1127 4133.44 1128.76 4138.21 1136.59C4143.07 1144.57 4142.11 1150.08 4133.91 1159.27C4119.66 1175.25 4102.64 1187.97 4085.4 1200.48C4041.08 1232.66 3991.34 1251.64 3937.52 1259.43C3919.16 1262.08 3900.04 1262.02 3881.5 1260.46C3846.64 1257.53 3812.66 1249.8 3780.32 1235.82C3729.96 1214.07 3692.62 1178.22 3665.93 1130.75C3640.38 1085.33 3628.2 1036.22 3626.37 984.434C3625.71 965.735 3625.72 946.973 3626.44 928.278C3626.93 915.605 3629.18 902.999 3630.92 888.14ZM3994.05 871.608C4003.32 867.904 4014.6 870.543 4022.98 862.59C4027.01 843.341 4020.17 825.604 4014.09 808.164C3991.85 744.323 3945.77 709.873 3879.09 705.549C3830.82 702.417 3816.69 717.385 3801.82 752.813C3801.16 754.377 3800.69 756.021 3800.04 757.588C3784.21 795.73 3779.67 836.243 3775.38 876.757C3774.9 881.321 3777.36 886.198 3778.71 892.007C3794.07 890.693 3808.3 889.526 3822.51 888.247C3845.31 886.195 3868.1 884.15 3890.88 881.954C3923.78 878.783 3956.66 875.479 3994.05 871.608Z" fill="white"/>
<path d="M3489.15 787.178C3479.12 793.829 3470.65 799.538 3461.9 804.764C3448.46 812.795 3434.62 813.522 3420.59 806.044C3416.83 804.043 3413.04 802.094 3409.15 800.371C3394.75 793.985 3386.75 783.867 3385.13 767.352C3383.4 749.657 3379.11 732.196 3375.61 714.698C3373.79 705.612 3371.28 696.666 3368.77 686.351C3362.27 685.873 3356.37 684.176 3351.03 685.251C3313.95 692.705 3279.54 707.232 3247.03 726.291C3241.23 729.686 3236.67 735.111 3231.16 739.06C3201.28 760.45 3208.73 808.112 3236.61 826.622C3260.97 842.795 3286.46 855.627 3313.88 865.296C3349.99 878.024 3386.06 890.88 3421.82 904.522C3444.93 913.338 3467.26 924.358 3486.21 940.473C3518.61 968.008 3538.79 1001.85 3541.16 1045.81C3544.04 1099.12 3532.14 1146.57 3494.68 1186.41C3471.31 1211.27 3442.96 1228.02 3411.58 1239.6C3373.85 1253.53 3334.53 1259.98 3294.22 1261.11C3262.64 1262 3231.36 1259.45 3200.14 1255.56C3192.57 1254.62 3185.05 1252.9 3177.67 1250.92C3142.21 1241.36 3107.87 1228.9 3076.57 1209.28C3058.84 1198.17 3057.76 1195.49 3061.64 1176.15C3069.34 1137.81 3077.09 1099.47 3085.12 1061.2C3087.85 1048.15 3091.44 1045.08 3104.36 1046.83C3119.48 1048.86 3134.39 1052.5 3149.35 1055.63C3156.7 1057.17 3161.24 1061.94 3163.01 1069.2C3166.03 1081.58 3169.01 1093.98 3171.88 1106.4C3177.6 1131.19 3183.24 1155.99 3188.86 1180.54C3205.8 1187.85 3222.25 1185.61 3237.8 1183.46C3265.54 1179.62 3293.16 1174.22 3320.38 1167.61C3341 1162.59 3360.9 1154.65 3378.58 1142.25C3387.14 1136.25 3393.63 1128.87 3397.28 1118.73C3401.23 1107.7 3401.23 1097.4 3396.49 1086.56C3389.15 1069.74 3379.62 1055.01 3362.76 1046.37C3349.15 1039.4 3335.79 1031.79 3321.68 1026C3291 1013.4 3259.75 1002.19 3229.03 989.654C3198.23 977.087 3168.79 962.082 3142.8 940.695C3114.15 917.112 3095.45 887.392 3086.4 851.822C3078.96 822.587 3077.85 792.62 3086.36 763.558C3091.08 747.45 3097.93 731.045 3107.66 717.537C3123.55 695.492 3142.84 676.251 3167.47 662.964C3204.7 642.887 3244.12 631.888 3286.11 626.399C3334.1 620.124 3381.08 622.677 3427.85 633.267C3461.76 640.947 3491.31 657.595 3516.65 681.259C3529.22 692.998 3534.01 707.604 3530.61 725.238C3527.22 742.782 3517.37 756.388 3506.69 769.652C3501.92 775.584 3496 780.592 3489.15 787.178Z" fill="white"/>
<path d="M4630.66 1190.65C4639.86 1193.26 4647.04 1195.47 4654.99 1197.93C4653.59 1214.05 4653.28 1229.21 4643.57 1243.7C4637.43 1244.31 4630.8 1245.54 4624.16 1245.55C4502.46 1245.66 4380.76 1245.66 4259.06 1245.55C4251.63 1245.55 4243.61 1247.22 4236.36 1240.21C4234.82 1225.46 4239.23 1210.84 4245.19 1196.93C4247.24 1192.15 4253.14 1188.08 4258.23 1185.73C4272.11 1179.32 4286.6 1174.23 4300.66 1168.19C4341.29 1150.73 4335.66 1154.48 4335.74 1116.66C4335.97 1007.73 4335.83 898.794 4335.82 789.86C4335.81 753.158 4338.15 754.338 4304.42 736.843C4285.55 727.056 4267.14 716.395 4248.63 705.93C4245.79 704.326 4243.56 701.654 4239.97 698.545C4242.07 689.668 4244.17 680.775 4246.34 671.587C4251.92 669.395 4256.44 666.734 4261.29 665.846C4319.79 655.129 4378.33 644.643 4436.89 634.27C4439.16 633.869 4441.73 635.208 4445.44 636.015C4454.29 652.147 4455.82 671.293 4462.83 688.481C4469.7 705.348 4469.88 724.741 4482.1 742.239C4488.17 733.707 4492.81 726.761 4497.88 720.14C4510.28 703.956 4522.01 687.164 4535.55 671.991C4562.39 641.916 4597.17 627.281 4636.96 624.805C4646.09 624.238 4655.59 626.33 4664.63 628.418C4694.32 635.272 4720.18 648.81 4741.01 671.808C4757.26 689.75 4760 710.094 4751.29 731.064C4737.48 764.314 4713.59 789.482 4682.02 806.83C4676.3 809.969 4669.15 811.121 4662.51 811.828C4645.79 813.61 4630.6 807.999 4616.18 800.24C4608.34 796.022 4603.33 789.561 4602 780.257C4600.56 770.171 4598.69 760.111 4596.29 750.211C4594.75 743.839 4591.94 737.775 4589.36 730.656C4582.89 732.058 4577.76 732.341 4573.35 734.26C4547.35 745.565 4525.17 762.799 4502.97 780.039C4491.67 788.816 4489.13 800.249 4489.19 813.808C4489.51 892.103 4489.34 970.4 4489.34 1048.7C4489.34 1075.93 4489.33 1103.16 4489.35 1130.4C4489.35 1135.5 4489.23 1140.63 4489.6 1145.71C4490.47 1157.43 4492.82 1160.79 4503.94 1163.67C4516.28 1166.86 4528.82 1169.27 4541.3 1171.91C4570.4 1178.06 4599.53 1184.15 4630.66 1190.65Z" fill="white"/>
<path d="M2748.38 1016.01C2748.38 938.632 2748.38 863.813 2748.37 788.993C2748.37 783.042 2747.86 777.041 2748.45 771.148C2749.93 756.294 2743.01 747.647 2730 741.244C2711.72 732.249 2694.17 721.782 2676.34 711.88C2672.64 709.821 2668.97 707.642 2665.48 705.237C2658.37 700.337 2655.69 693.665 2658.51 685.307C2660.11 680.574 2662.15 675.988 2663.67 672.141C2690.55 662.965 2879.97 631.961 2902.71 632.827C2908.13 640.39 2905.97 649.176 2906 657.45C2906.22 705.912 2906.11 754.375 2906.11 802.838C2906.11 911.666 2906.09 1020.49 2906.13 1129.32C2906.14 1157.87 2903.89 1160.55 2935.03 1171.59C2956.57 1179.24 2977.68 1188.1 3000.25 1196.91C2999.52 1212.97 2998.18 1227.78 2990.74 1241.2C2982.06 1247.69 2972.39 1245.53 2963.27 1245.55C2893.55 1245.73 2823.83 1245.65 2754.11 1245.65C2728.61 1245.65 2703.1 1245.77 2677.6 1245.57C2670.14 1245.51 2662.69 1244.53 2654.26 1243.91C2652.86 1227.95 2655.82 1214.08 2659.29 1200.37C2660.86 1194.13 2666.16 1191.05 2671.93 1188.75C2687.73 1182.48 2703.45 1176.01 2719.22 1169.69C2723.17 1168.11 2727.12 1166.44 2731.22 1165.39C2744.03 1162.13 2748.57 1153.83 2748.46 1140.99C2748.1 1100.18 2748.36 1059.37 2748.38 1016.01Z" fill="white"/>
<path d="M2783.81 346.357C2801.59 334.672 2818.93 338.899 2834.25 345.417C2856.05 354.686 2876.78 366.734 2897.19 378.886C2913.59 388.648 2919.97 404.681 2914.9 422.937C2906.41 453.456 2893.08 481.776 2872.46 506.405C2861.99 518.911 2849.07 523.441 2833.84 520.035C2801.86 512.881 2772.72 499.863 2747.71 477.877C2732.8 464.772 2730.15 449.924 2736.03 431.963C2744.29 406.716 2755.47 382.997 2771.34 361.617C2774.89 356.838 2778.71 352.258 2783.81 346.357Z" fill="white"/>
</svg>
