<svg width="4714" height="1558" viewBox="0 0 4714 1558" fill="none" xmlns="http://www.w3.org/2000/svg">
<path d="M1133.99 211.624C1245.56 270.609 1356.26 329.155 1466.62 387.514C1468.03 398.653 1468.56 1143.84 1467.25 1168.99C1467.08 1169.37 1466.97 1169.8 1466.72 1170.12C1466.47 1170.46 1466.11 1170.75 1465.74 1170.97C1463.49 1172.29 1461.27 1173.66 1458.97 1174.88C1217.57 1302.61 976.166 1430.34 735.493 1557.67C734.14 1557.67 733.705 1557.7 733.273 1557.66C732.844 1557.63 732.361 1557.65 732.001 1557.46C489.032 1428.96 246.07 1300.44 3.12281 1171.9C2.00782 1171.31 1.09754 1170.33 0 1169.46C0 909.156 0 648.867 0 388.008C244.508 258.666 488.952 129.358 733.489 0C740.267 3.46826 746.466 6.54823 752.583 9.7834C876.76 75.4587 1000.93 141.151 1125.1 206.845C1127.78 208.267 1130.45 209.738 1133.99 211.624ZM1389.69 430.678C1344.74 406.854 1299.81 383.005 1254.85 359.212C1090.75 272.374 926.639 185.552 762.526 98.7382C752.957 93.6759 743.317 88.7448 734.501 84.1635C732.55 84.5447 731.602 84.5168 730.873 84.9023C516.011 198.506 301.163 312.138 86.321 425.78C82.4799 427.811 78.7057 429.97 74.9083 432.084C74.5319 432.293 74.1495 432.553 73.8828 432.881C73.6259 433.198 73.5155 433.634 72.8107 435.179C72.8107 437.473 72.8097 440.939 72.8109 444.406C72.89 670.721 72.969 897.035 73.0641 1123.35C73.0644 1123.77 73.2621 1124.2 73.4427 1124.59C73.6144 1124.97 73.8847 1125.29 74.6469 1126.46C293.68 1242.32 513.434 1358.64 733.462 1474.94C953.853 1358.35 1173.65 1242.07 1394.06 1125.47C1394.06 1120.56 1394.06 1115.81 1394.06 1111.06C1394.06 889.967 1394.06 668.871 1394.06 447.775C1394.06 443.859 1394.19 439.923 1393.83 436.037C1393.69 434.547 1392.34 433.169 1389.69 430.678Z" fill="#FBBB59"/>
<path d="M839.331 681.268C946.842 638.146 1053.44 595.449 1160.05 552.776C1165.23 550.701 1170.5 548.83 1176.13 546.71C1199.5 576.444 1230.01 591.877 1266.99 593.991C1269.81 598.936 1268.63 603.832 1268.64 608.497C1268.74 659.86 1268.7 711.222 1268.7 762.585C1268.7 859.216 1268.7 955.848 1268.7 1052.48C1268.7 1057.69 1268.7 1062.89 1268.7 1067.43C1267.91 1068.44 1267.65 1068.79 1267.37 1069.12C1267.09 1069.45 1266.84 1069.88 1266.48 1070.05C1126.62 1137.44 986.747 1204.8 846.867 1272.14C844.53 1273.27 842.041 1274.08 839.453 1275.1C833.003 1266.22 826.941 1257.27 820.232 1248.82C813.413 1240.24 804.952 1233.22 795.417 1227.88C785.98 1222.59 776.049 1218.18 765.298 1212.87C765.113 1210.55 764.608 1207.16 764.607 1203.76C764.568 1062.3 764.572 920.835 764.589 779.37C764.589 776.784 764.807 774.198 764.962 770.737C780.645 763.266 794.591 753.269 804.523 738.366C814.222 723.81 818.388 707.608 819.399 690.156C825.281 686.056 832.133 684.478 839.331 681.268Z" fill="#00C1CA"/>
<path d="M703.915 1110.9C703.915 1145.26 703.915 1178.32 703.915 1211.7C701.407 1213.04 699.292 1214.56 696.937 1215.38C669.534 1224.95 648.567 1242.33 633.673 1267.17C632.365 1269.35 630.845 1271.4 629.543 1273.34C620.516 1271.41 567.799 1246.58 486.385 1206.71C438.751 1183.39 390.776 1160.76 342.972 1137.79C295.58 1115.01 248.21 1092.19 201.919 1069.91C200.94 1068.35 200.678 1068.01 200.503 1067.63C200.323 1067.23 200.126 1066.81 200.11 1066.39C199.975 1062.91 199.786 1059.44 199.788 1055.96C199.84 903.235 199.91 750.505 200.01 597.775C200.011 596.964 200.478 596.153 201.013 594.41C218.172 592.371 235.562 589.434 251.591 581.137C267.668 572.815 281.075 561.373 291.928 547.648C305.404 551.467 639.572 685.456 649.062 690.807C651.089 727.542 668.466 754.601 702.426 770.162C704.882 775.452 703.863 780.741 703.866 785.853C703.933 884.194 703.916 982.535 703.916 1080.88C703.916 1090.45 703.916 1100.02 703.915 1110.9Z" fill="#00C1CA"/>
<path d="M438.622 541.151C396.942 524.477 356.21 508.142 314.834 491.549C316.437 470.984 313.278 451.45 305.706 432.771C308.719 428.517 313.243 427.765 317.099 426.085C360.549 407.156 404.038 388.318 447.528 369.481C530.515 333.537 613.51 297.61 696.499 261.671C706.075 257.524 715.762 253.604 725.164 249.091C731.122 246.231 736.262 246.23 742.436 249.03C765.399 259.443 788.636 269.25 811.772 279.281C923.47 327.709 1035.17 376.131 1146.86 424.579C1151.59 426.632 1156.22 428.932 1161.54 431.418C1155.14 450.425 1150.28 469.262 1152.9 488.795C1150.09 493.901 1144.96 494.518 1140.68 496.241C1091.08 516.24 1041.42 536.093 991.78 555.987C931.242 580.247 870.707 604.513 810.163 628.756C805.772 630.514 801.312 632.099 796.349 633.966C778.573 616.897 758.058 606.752 733.192 606.945C708.837 607.134 688.675 617.059 671.056 634.149C593.56 603.413 516.679 572.163 438.622 541.151Z" fill="#00C1CA"/>
<path d="M152.911 507.677C145.191 493.577 143.605 479.747 147.853 465.198C155.33 439.586 180.747 423.223 207.293 427.056C233.36 430.82 252.347 453.006 253.154 479.388C253.814 500.936 240.332 522.911 218.24 531.028C196.394 539.055 171.781 532.23 157.055 513.922C155.697 512.234 154.602 510.334 152.911 507.677Z" fill="#01BFC8"/>
<path d="M711.965 1279.26C726.491 1273.97 740.159 1273.42 753.74 1278.66C777.085 1287.66 791.202 1312.86 786.918 1337.54C782.429 1363.39 760.993 1381.47 735.172 1382.48C712.824 1383.36 689.791 1368.99 682.506 1345.4C675.773 1323.6 681.488 1299.82 703.155 1284.31C705.617 1282.55 708.403 1281.24 711.965 1279.26Z" fill="#01BFC8"/>
<path d="M1275.56 427.025C1288.44 429.589 1298.66 434.657 1307.21 443.448C1325.55 462.31 1324.74 491.462 1314.07 508.696C1304.04 524.895 1282.58 539.654 1254.12 532.535C1229.37 526.346 1214.17 503.048 1214.12 480.705C1214.05 451.44 1238.44 426.718 1266.64 426.749C1269.25 426.751 1271.86 426.842 1275.56 427.025Z" fill="#01BFC8"/>
<path d="M771.042 668.891C776.27 677.291 778.037 685.539 778.174 694.461C778.488 714.919 761.351 735.477 738.952 737.546C711.287 740.102 693.939 721.333 689.965 702.252C685.379 680.234 698.615 658.037 719.935 650.92C738.099 644.856 760.648 652.367 771.042 668.891Z" fill="#01BEC7"/>
<path d="M2025.77 448.563C2036.69 418.732 2047.43 390.933 2056.73 362.658C2061.59 347.868 2070.79 340.327 2085.52 337.703C2114.81 332.488 2144.02 326.871 2173.31 321.647C2176.52 321.073 2180 321.979 2183.88 322.233C2195.85 338.278 2200.67 357.532 2207.68 375.536C2250.57 485.728 2292.78 596.185 2335.23 706.55C2377.99 817.712 2420.78 928.862 2463.51 1040.03C2472.98 1064.65 2482.61 1089.21 2491.54 1114.02C2495.98 1126.35 2503.87 1133.83 2516.35 1137.34C2532.73 1141.94 2549 1146.92 2565.25 1151.97C2573.33 1154.47 2581.24 1157.49 2590.38 1160.68C2591.09 1166.79 2592.4 1172.48 2592.21 1178.13C2592.04 1183.14 2589.87 1188.04 2589.13 1193.07C2583.93 1228.57 2578.1 1224.59 2549.08 1224.61C2445.23 1224.69 2341.39 1224.67 2237.54 1224.6C2228.32 1224.59 2218.92 1225.69 2208.95 1222.24C2206.79 1205.42 2211.12 1189.93 2216.39 1175C2218.03 1170.34 2224.43 1166.18 2229.59 1164.14C2247.77 1156.95 2266.35 1150.76 2284.79 1144.2C2295.12 1140.53 2305.96 1137.84 2314.6 1129.04C2312.88 1112.7 2305.82 1098.01 2300.73 1082.85C2289.35 1048.98 2277.28 1015.34 2265.49 981.607C2264.09 977.589 2262.6 973.595 2261.38 969.522C2256.19 952.227 2250.97 948.84 2231.5 951.793C2210.63 954.957 2189.09 953.72 2167.84 954.325C2148.31 954.882 2128.74 953.694 2109.36 957.963C2102.02 959.58 2094.1 958.745 2086.45 958.778C2049.85 958.936 2013.25 958.983 1976.65 959.134C1969.84 959.162 1963.03 959.597 1956.23 959.65C1946.41 959.726 1940.42 964.878 1937.09 973.683C1935.58 977.66 1934.16 981.669 1932.78 985.692C1917.65 1029.96 1902.5 1074.22 1887.45 1118.52C1886.39 1121.62 1886.07 1124.97 1885.11 1129.63C1892.64 1132.63 1899.46 1135.78 1906.56 1138.09C1930.81 1145.98 1955.14 1153.6 1979.46 1161.28C2004.08 1169.06 2007.5 1171.02 2001.14 1196.95C1994.49 1224.05 1995.39 1224.56 1968.18 1224.59C1877.1 1224.7 1786.02 1224.59 1694.95 1224.67C1674.55 1224.69 1665.72 1225.81 1671.98 1197.04C1680.97 1155.74 1680.19 1163.07 1710.85 1151.87C1728.43 1145.44 1745.92 1138.75 1763.69 1132.89C1775.29 1129.06 1781.71 1121.55 1785.76 1110.26C1805.56 1055 1825.84 999.903 1845.93 944.749C1870.98 876.005 1896.06 807.271 1921.06 738.51C1936.46 696.133 1951.8 653.728 1967.1 611.311C1986.43 557.687 2005.7 504.037 2025.77 448.563ZM2160.89 862.05C2179.76 860.295 2199.4 866 2217.82 857.828C2218.95 846.413 2214.35 837.977 2211.35 829.312C2184.29 751.355 2157.08 673.452 2129.86 595.553C2120.6 569.052 2111.28 542.57 2101.72 516.177C2100.14 511.82 2097.17 507.968 2093.12 500.849C2090.17 507.614 2088.19 511.125 2087.07 514.891C2081.74 532.826 2077.19 551.009 2071.38 568.779C2040.95 661.765 2010.2 754.642 1979.72 847.609C1978.53 851.228 1978.96 855.376 1978.41 862.027C2038.71 862.068 2097.27 862.044 2160.89 862.05Z" fill="#002741"/>
<path d="M3587.92 867.14C3603.46 774.843 3648.06 702.746 3723.1 650.851C3756.17 627.978 3793.75 613.811 3833.86 607.086C3858.29 602.989 3882.78 600.804 3907.5 602.047C3956.2 604.494 4001.31 617.797 4040.42 647.917C4079.71 678.17 4104.2 717.731 4114.57 766.328C4123.48 808.115 4120.31 849.188 4108.71 889.845C4106.65 897.062 4103.15 904.138 4099.02 910.427C4093.65 918.593 4085.58 923.307 4075.39 923.436C4067.73 923.533 4060.07 923.673 4052.41 923.674C3957.95 923.69 3863.48 923.63 3769.01 923.766C3759.04 923.78 3748.58 921.792 3739.73 927.442C3734.63 937.146 3736.42 946.474 3738.38 955.557C3745.42 988.237 3756.59 1019.61 3774.23 1047.95C3794.2 1080.04 3819.31 1107.69 3853.82 1125.09C3870.75 1133.64 3888.84 1137.65 3907.89 1138.29C3935.32 1139.22 3962.21 1135.69 3988.8 1129.64C4012.85 1124.17 4036.73 1117.92 4060.67 1111.98C4064.79 1110.95 4068.82 1109.48 4072.97 1108.59C4085.09 1106 4090.44 1107.76 4095.21 1115.59C4100.07 1123.57 4099.11 1129.08 4090.91 1138.27C4076.66 1154.25 4059.64 1166.97 4042.4 1179.48C3998.08 1211.66 3948.34 1230.64 3894.52 1238.43C3876.16 1241.08 3857.04 1241.02 3838.5 1239.46C3803.64 1236.53 3769.66 1228.8 3737.32 1214.82C3686.96 1193.07 3649.62 1157.22 3622.93 1109.75C3597.38 1064.33 3585.2 1015.22 3583.37 963.434C3582.71 944.735 3582.72 925.973 3583.44 907.278C3583.93 894.605 3586.18 881.999 3587.92 867.14ZM3951.05 850.608C3960.32 846.904 3971.6 849.543 3979.98 841.59C3984.01 822.341 3977.17 804.604 3971.09 787.164C3948.85 723.323 3902.77 688.873 3836.09 684.549C3787.82 681.417 3773.69 696.385 3758.82 731.813C3758.16 733.377 3757.69 735.021 3757.04 736.588C3741.21 774.73 3736.67 815.243 3732.38 855.757C3731.9 860.321 3734.36 865.198 3735.71 871.007C3751.07 869.693 3765.3 868.526 3779.51 867.247C3802.31 865.195 3825.1 863.15 3847.88 860.954C3880.78 857.783 3913.66 854.479 3951.05 850.608Z" fill="#002741"/>
<path d="M3446.15 766.178C3436.12 772.829 3427.65 778.538 3418.9 783.764C3405.46 791.795 3391.62 792.522 3377.59 785.044C3373.83 783.043 3370.04 781.094 3366.15 779.371C3351.75 772.985 3343.75 762.867 3342.13 746.352C3340.4 728.657 3336.11 711.196 3332.61 693.698C3330.79 684.612 3328.28 675.666 3325.77 665.351C3319.27 664.873 3313.37 663.176 3308.03 664.251C3270.95 671.705 3236.54 686.232 3204.03 705.291C3198.23 708.686 3193.67 714.111 3188.16 718.06C3158.28 739.45 3165.73 787.112 3193.61 805.622C3217.97 821.795 3243.46 834.627 3270.88 844.296C3306.99 857.024 3343.06 869.88 3378.82 883.522C3401.93 892.338 3424.26 903.358 3443.21 919.473C3475.61 947.008 3495.79 980.852 3498.16 1024.81C3501.04 1078.12 3489.14 1125.57 3451.68 1165.41C3428.31 1190.27 3399.96 1207.02 3368.58 1218.6C3330.85 1232.53 3291.53 1238.98 3251.22 1240.11C3219.64 1241 3188.36 1238.45 3157.14 1234.56C3149.57 1233.62 3142.05 1231.9 3134.67 1229.92C3099.21 1220.36 3064.87 1207.9 3033.57 1188.28C3015.84 1177.17 3014.76 1174.49 3018.64 1155.15C3026.34 1116.81 3034.09 1078.47 3042.12 1040.2C3044.85 1027.15 3048.44 1024.08 3061.36 1025.83C3076.48 1027.86 3091.39 1031.5 3106.35 1034.63C3113.7 1036.17 3118.24 1040.94 3120.01 1048.2C3123.03 1060.58 3126.01 1072.98 3128.88 1085.4C3134.6 1110.19 3140.24 1134.99 3145.86 1159.54C3162.8 1166.85 3179.25 1164.61 3194.8 1162.46C3222.54 1158.62 3250.16 1153.22 3277.38 1146.61C3298 1141.59 3317.9 1133.65 3335.58 1121.25C3344.14 1115.25 3350.63 1107.87 3354.28 1097.73C3358.23 1086.7 3358.23 1076.4 3353.49 1065.56C3346.15 1048.74 3336.62 1034.01 3319.76 1025.37C3306.15 1018.4 3292.79 1010.79 3278.68 1005C3248 992.402 3216.75 981.186 3186.03 968.654C3155.23 956.087 3125.79 941.082 3099.8 919.695C3071.15 896.112 3052.45 866.392 3043.4 830.822C3035.96 801.587 3034.85 771.62 3043.36 742.558C3048.08 726.45 3054.93 710.045 3064.66 696.537C3080.55 674.492 3099.84 655.251 3124.47 641.964C3161.7 621.887 3201.12 610.888 3243.11 605.399C3291.1 599.124 3338.08 601.677 3384.85 612.267C3418.76 619.947 3448.31 636.595 3473.65 660.259C3486.22 671.998 3491.01 686.604 3487.61 704.238C3484.22 721.782 3474.37 735.388 3463.69 748.652C3458.92 754.584 3453 759.592 3446.15 766.178Z" fill="#002741"/>
<path d="M4587.66 1169.65C4596.86 1172.26 4604.04 1174.47 4611.99 1176.93C4610.59 1193.05 4610.28 1208.21 4600.57 1222.7C4594.43 1223.31 4587.8 1224.54 4581.16 1224.55C4459.46 1224.66 4337.76 1224.66 4216.06 1224.55C4208.63 1224.55 4200.61 1226.22 4193.36 1219.21C4191.82 1204.46 4196.23 1189.84 4202.19 1175.93C4204.24 1171.15 4210.14 1167.08 4215.23 1164.73C4229.11 1158.32 4243.6 1153.23 4257.66 1147.19C4298.29 1129.73 4292.66 1133.48 4292.74 1095.66C4292.97 986.728 4292.83 877.794 4292.82 768.86C4292.81 732.158 4295.15 733.338 4261.42 715.843C4242.55 706.056 4224.14 695.395 4205.63 684.93C4202.79 683.326 4200.56 680.654 4196.97 677.545C4199.07 668.668 4201.17 659.775 4203.34 650.587C4208.92 648.395 4213.44 645.734 4218.29 644.846C4276.79 634.129 4335.33 623.643 4393.89 613.27C4396.16 612.869 4398.73 614.208 4402.44 615.015C4411.29 631.147 4412.82 650.293 4419.83 667.481C4426.7 684.348 4426.88 703.741 4439.1 721.239C4445.17 712.707 4449.81 705.761 4454.88 699.14C4467.28 682.956 4479.01 666.164 4492.55 650.991C4519.39 620.916 4554.17 606.281 4593.96 603.805C4603.09 603.238 4612.59 605.33 4621.63 607.418C4651.32 614.272 4677.18 627.81 4698.01 650.808C4714.26 668.75 4717 689.094 4708.29 710.064C4694.48 743.314 4670.59 768.482 4639.02 785.83C4633.3 788.969 4626.15 790.121 4619.51 790.828C4602.79 792.61 4587.6 786.999 4573.18 779.24C4565.34 775.022 4560.33 768.561 4559 759.257C4557.56 749.171 4555.69 739.111 4553.29 729.211C4551.75 722.839 4548.94 716.775 4546.36 709.656C4539.89 711.058 4534.76 711.341 4530.35 713.26C4504.35 724.565 4482.17 741.799 4459.97 759.039C4448.67 767.816 4446.13 779.249 4446.19 792.808C4446.51 871.103 4446.34 949.4 4446.34 1027.7C4446.34 1054.93 4446.33 1082.16 4446.35 1109.4C4446.35 1114.5 4446.23 1119.63 4446.6 1124.71C4447.47 1136.43 4449.82 1139.79 4460.94 1142.67C4473.28 1145.86 4485.82 1148.27 4498.3 1150.91C4527.4 1157.06 4556.53 1163.15 4587.66 1169.65Z" fill="#002741"/>
<path d="M2705.38 995.005C2705.38 917.632 2705.38 842.813 2705.37 767.993C2705.37 762.042 2704.86 756.041 2705.45 750.148C2706.93 735.294 2700.01 726.647 2687 720.244C2668.72 711.249 2651.17 700.782 2633.34 690.88C2629.64 688.821 2625.97 686.642 2622.48 684.237C2615.37 679.337 2612.69 672.665 2615.51 664.307C2617.11 659.574 2619.15 654.988 2620.67 651.141C2647.55 641.965 2836.97 610.961 2859.71 611.827C2865.13 619.39 2862.97 628.176 2863 636.45C2863.22 684.912 2863.11 733.375 2863.11 781.838C2863.11 890.666 2863.09 999.494 2863.13 1108.32C2863.14 1136.87 2860.89 1139.55 2892.03 1150.59C2913.57 1158.24 2934.68 1167.1 2957.25 1175.91C2956.52 1191.97 2955.18 1206.78 2947.74 1220.2C2939.06 1226.69 2929.39 1224.53 2920.27 1224.55C2850.55 1224.73 2780.83 1224.65 2711.11 1224.65C2685.61 1224.65 2660.1 1224.77 2634.6 1224.57C2627.14 1224.51 2619.69 1223.53 2611.26 1222.91C2609.86 1206.95 2612.82 1193.08 2616.29 1179.37C2617.86 1173.13 2623.16 1170.05 2628.93 1167.75C2644.73 1161.48 2660.45 1155.01 2676.22 1148.69C2680.17 1147.11 2684.12 1145.44 2688.22 1144.39C2701.03 1141.13 2705.57 1132.83 2705.46 1119.99C2705.1 1079.18 2705.36 1038.37 2705.38 995.005Z" fill="#002741"/>
<path d="M2740.81 325.357C2758.59 313.672 2775.93 317.899 2791.25 324.417C2813.05 333.686 2833.78 345.734 2854.19 357.886C2870.59 367.648 2876.97 383.681 2871.9 401.937C2863.41 432.456 2850.08 460.776 2829.46 485.405C2818.99 497.911 2806.07 502.441 2790.84 499.035C2758.86 491.881 2729.72 478.863 2704.71 456.877C2689.8 443.772 2687.15 428.924 2693.03 410.963C2701.29 385.716 2712.47 361.997 2728.34 340.617C2731.89 335.838 2735.71 331.258 2740.81 325.357Z" fill="#002741"/>
</svg>
