<svg width="3601" height="3800" viewBox="0 0 3601 3800" fill="none" xmlns="http://www.w3.org/2000/svg">
<path d="M421.784 2863.4C434.697 2828.12 447.406 2795.24 458.402 2761.81C464.154 2744.31 475.039 2735.4 492.469 2732.29C527.113 2726.13 561.673 2719.48 596.315 2713.3C600.117 2712.63 604.231 2713.7 608.819 2714C622.989 2732.97 628.691 2755.74 636.98 2777.03C687.721 2907.35 737.655 3037.98 787.872 3168.49C838.452 3299.95 889.067 3431.4 939.625 3562.87C950.82 3591.98 962.212 3621.03 972.779 3650.37C978.029 3664.95 987.371 3673.8 1002.13 3677.95C1021.51 3683.39 1040.76 3689.28 1059.98 3695.24C1069.53 3698.21 1078.9 3701.78 1089.71 3705.54C1090.55 3712.77 1092.1 3719.51 1091.87 3726.19C1091.66 3732.11 1089.1 3737.91 1088.23 3743.86C1082.08 3785.83 1075.18 3781.13 1040.84 3781.15C917.997 3781.25 795.15 3781.22 672.303 3781.14C661.401 3781.13 650.281 3782.43 638.478 3778.35C635.925 3758.46 641.043 3740.14 647.28 3722.48C649.228 3716.97 656.798 3712.06 662.893 3709.65C684.404 3701.14 706.388 3693.82 728.2 3686.07C740.422 3681.72 753.243 3678.54 763.464 3668.13C761.432 3648.81 753.072 3631.43 747.052 3613.51C733.596 3573.45 719.309 3533.67 705.369 3493.78C703.71 3489.03 701.95 3484.3 700.505 3479.49C694.369 3459.03 688.187 3455.03 665.152 3458.52C640.465 3462.26 614.982 3460.8 589.843 3461.51C566.744 3462.17 543.596 3460.77 520.666 3465.82C511.98 3467.73 502.619 3466.74 493.564 3466.78C450.266 3466.97 406.968 3467.02 363.67 3467.2C355.617 3467.23 347.567 3467.75 339.514 3467.81C327.904 3467.9 320.814 3473.99 316.873 3484.41C315.094 3489.11 313.409 3493.85 311.782 3498.61C293.873 3550.96 275.955 3603.3 258.148 3655.69C256.901 3659.36 256.517 3663.32 255.385 3668.83C264.285 3672.37 272.359 3676.1 280.756 3678.83C309.441 3688.17 338.231 3697.18 366.999 3706.26C396.123 3715.46 400.174 3717.78 392.647 3748.44C384.779 3780.49 385.847 3781.1 353.652 3781.14C245.909 3781.26 138.166 3781.13 30.4229 3781.22C6.29941 3781.24 -4.15546 3782.58 3.25678 3748.55C13.8942 3699.71 12.966 3708.38 49.2338 3695.13C70.0309 3687.53 90.728 3679.61 111.748 3672.68C125.472 3668.16 133.068 3659.27 137.854 3645.92C161.281 3580.57 185.262 3515.42 209.038 3450.19C238.671 3368.89 268.331 3287.61 297.908 3206.29C316.135 3156.17 334.274 3106.03 352.37 3055.86C375.247 2992.45 398.04 2929 421.784 2863.4ZM581.625 3352.39C603.945 3350.31 627.184 3357.06 648.975 3347.4C650.316 3333.9 644.872 3323.92 641.315 3313.67C609.308 3221.48 577.118 3129.35 544.914 3037.23C533.959 3005.89 522.939 2974.57 511.63 2943.36C509.763 2938.21 506.248 2933.65 501.452 2925.23C497.962 2933.23 495.622 2937.38 494.298 2941.84C487.995 2963.05 482.613 2984.55 475.735 3005.57C439.743 3115.53 403.362 3225.37 367.305 3335.31C365.901 3339.59 366.408 3344.5 365.755 3352.36C437.091 3352.41 506.37 3352.38 581.625 3352.39Z" fill="white"/>
<path d="M2269.77 3358.41C2288.16 3249.26 2340.93 3163.99 2429.7 3102.62C2468.82 3075.57 2513.27 3058.82 2560.72 3050.87C2589.63 3046.02 2618.59 3043.44 2647.83 3044.91C2705.45 3047.8 2758.81 3063.53 2805.09 3099.15C2851.56 3134.93 2880.54 3181.72 2892.8 3239.19C2903.34 3288.6 2899.59 3337.18 2885.87 3385.26C2883.43 3393.79 2879.29 3402.16 2874.4 3409.6C2868.05 3419.26 2858.5 3424.83 2846.45 3424.98C2837.39 3425.1 2828.33 3425.26 2819.27 3425.27C2707.52 3425.28 2595.76 3425.21 2484.01 3425.37C2472.21 3425.39 2459.84 3423.04 2449.37 3429.72C2443.34 3441.2 2445.45 3452.23 2447.77 3462.97C2456.1 3501.62 2469.32 3538.72 2490.18 3572.23C2513.81 3610.18 2543.51 3642.88 2584.33 3663.47C2604.37 3673.57 2625.77 3678.31 2648.3 3679.07C2680.74 3680.18 2712.56 3676 2744.02 3668.84C2772.47 3662.37 2800.71 3654.99 2829.03 3647.95C2833.91 3646.74 2838.67 3645 2843.58 3643.95C2857.93 3640.88 2864.26 3642.97 2869.9 3652.23C2875.65 3661.67 2874.51 3668.18 2864.81 3679.05C2847.95 3697.95 2827.81 3712.99 2807.43 3727.78C2755 3765.84 2696.15 3788.28 2632.49 3797.49C2610.76 3800.64 2588.15 3800.56 2566.21 3798.72C2524.97 3795.25 2484.78 3786.11 2446.52 3769.58C2386.95 3743.85 2342.77 3701.46 2311.2 3645.33C2280.98 3591.61 2266.56 3533.53 2264.4 3472.29C2263.62 3450.17 2263.63 3427.98 2264.48 3405.88C2265.05 3390.89 2267.72 3375.98 2269.77 3358.41ZM2699.36 3338.86C2710.33 3334.48 2723.67 3337.6 2733.59 3328.19C2738.35 3305.43 2730.25 3284.45 2723.07 3263.83C2696.76 3188.33 2642.24 3147.59 2563.37 3142.47C2506.25 3138.77 2489.55 3156.47 2471.95 3198.37C2471.18 3200.22 2470.62 3202.16 2469.85 3204.02C2451.12 3249.12 2445.75 3297.03 2440.68 3344.95C2440.11 3350.34 2443.02 3356.11 2444.61 3362.98C2462.78 3361.43 2479.61 3360.05 2496.43 3358.53C2523.4 3356.11 2550.36 3353.69 2577.31 3351.09C2616.23 3347.34 2655.13 3343.44 2699.36 3338.86Z" fill="white"/>
<path d="M2102.07 3239.01C2090.2 3246.87 2080.19 3253.63 2069.84 3259.81C2053.93 3269.3 2037.56 3270.16 2020.96 3261.32C2016.52 3258.95 2012.03 3256.65 2007.43 3254.61C1990.39 3247.06 1980.93 3235.09 1979.02 3215.56C1976.97 3194.64 1971.89 3173.99 1967.75 3153.29C1965.61 3142.55 1962.63 3131.97 1959.66 3119.77C1951.97 3119.21 1944.99 3117.2 1938.67 3118.47C1894.81 3127.28 1854.1 3144.46 1815.64 3167C1808.79 3171.02 1803.39 3177.43 1796.87 3182.1C1761.52 3207.4 1770.34 3263.77 1803.32 3285.66C1832.13 3304.78 1862.29 3319.96 1894.73 3331.39C1937.44 3346.44 1980.11 3361.65 2022.42 3377.78C2049.76 3388.21 2076.17 3401.24 2098.6 3420.3C2136.92 3452.86 2160.79 3492.88 2163.6 3544.87C2167 3607.91 2152.92 3664.02 2108.61 3711.15C2080.97 3740.54 2047.43 3760.35 2010.31 3774.05C1965.67 3790.52 1919.15 3798.14 1871.47 3799.49C1834.11 3800.54 1797.11 3797.52 1760.17 3792.92C1751.22 3791.81 1742.32 3789.78 1733.6 3787.43C1691.64 3776.13 1651.03 3761.39 1613.99 3738.19C1593.01 3725.05 1591.74 3721.89 1596.33 3699.01C1605.44 3653.67 1614.6 3608.33 1624.1 3563.07C1627.34 3547.64 1631.58 3544.01 1646.87 3546.07C1664.75 3548.48 1682.39 3552.78 1700.08 3556.48C1708.79 3558.3 1714.16 3563.94 1716.25 3572.53C1719.82 3587.18 1723.34 3601.84 1726.74 3616.53C1733.51 3645.84 1740.19 3675.17 1746.84 3704.2C1766.87 3712.84 1786.33 3710.2 1804.72 3707.65C1837.54 3703.11 1870.22 3696.73 1902.42 3688.91C1926.81 3682.98 1950.35 3673.58 1971.27 3658.92C1981.4 3651.82 1989.08 3643.09 1993.38 3631.1C1998.07 3618.06 1998.07 3605.88 1992.46 3593.05C1983.77 3573.17 1972.5 3555.74 1952.55 3545.53C1936.45 3537.29 1920.64 3528.29 1903.96 3521.44C1867.66 3506.54 1830.69 3493.28 1794.35 3478.46C1757.92 3463.6 1723.09 3445.85 1692.35 3420.56C1658.45 3392.67 1636.33 3357.52 1625.62 3315.46C1616.82 3280.88 1615.5 3245.45 1625.58 3211.08C1631.16 3192.03 1639.27 3172.63 1650.78 3156.65C1669.56 3130.58 1692.38 3107.83 1721.53 3092.11C1765.56 3068.37 1812.2 3055.36 1861.87 3048.87C1918.65 3041.45 1974.23 3044.47 2029.55 3056.99C2069.66 3066.08 2104.62 3085.76 2134.6 3113.75C2149.47 3127.63 2155.14 3144.9 2151.11 3165.76C2147.1 3186.51 2135.45 3202.6 2122.82 3218.28C2117.17 3225.3 2110.17 3231.22 2102.07 3239.01Z" fill="white"/>
<path d="M3452.45 3716.16C3463.34 3719.24 3471.84 3721.86 3481.24 3724.76C3479.58 3743.83 3479.22 3761.75 3467.73 3778.9C3460.46 3779.62 3452.62 3781.07 3444.77 3781.08C3300.8 3781.22 3156.83 3781.22 3012.86 3781.09C3004.07 3781.08 2994.58 3783.06 2986 3774.77C2984.18 3757.32 2989.4 3740.03 2996.45 3723.59C2998.88 3717.94 3005.86 3713.12 3011.87 3710.34C3028.3 3702.75 3045.43 3696.74 3062.07 3689.59C3110.14 3668.94 3103.48 3673.38 3103.57 3628.66C3103.84 3499.83 3103.68 3371.01 3103.66 3242.18C3103.65 3198.78 3106.42 3200.17 3066.52 3179.48C3044.2 3167.91 3022.41 3155.3 3000.52 3142.92C2997.16 3141.03 2994.52 3137.87 2990.28 3134.19C2992.76 3123.69 2995.25 3113.18 2997.82 3102.31C3004.41 3099.72 3009.76 3096.57 3015.5 3095.52C3084.7 3082.85 3153.95 3070.45 3223.23 3058.18C3225.91 3057.71 3228.96 3059.29 3233.35 3060.24C3243.81 3079.32 3245.63 3101.96 3253.91 3122.29C3262.05 3142.24 3262.25 3165.17 3276.71 3185.86C3283.89 3175.77 3289.39 3167.56 3295.38 3159.73C3310.04 3140.59 3323.93 3120.73 3339.95 3102.79C3371.7 3067.22 3412.84 3049.91 3459.91 3046.99C3470.71 3046.32 3481.94 3048.79 3492.64 3051.26C3527.77 3059.36 3558.36 3075.38 3583 3102.57C3602.23 3123.79 3605.46 3147.85 3595.16 3172.65C3578.82 3211.97 3550.57 3241.73 3513.21 3262.25C3506.45 3265.96 3497.99 3267.32 3490.14 3268.16C3470.36 3270.27 3452.38 3263.63 3435.33 3254.46C3426.06 3249.47 3420.12 3241.83 3418.55 3230.82C3416.85 3218.9 3414.63 3207 3411.8 3195.29C3409.98 3187.76 3406.65 3180.59 3403.6 3172.17C3395.94 3173.82 3389.88 3174.16 3384.66 3176.43C3353.9 3189.8 3327.66 3210.18 3301.4 3230.57C3288.03 3240.95 3285.03 3254.47 3285.1 3270.5C3285.48 3363.09 3285.28 3455.69 3285.27 3548.28C3285.27 3580.49 3285.26 3612.69 3285.29 3644.9C3285.29 3650.94 3285.14 3657 3285.59 3663.01C3286.62 3676.87 3289.4 3680.84 3302.55 3684.25C3317.15 3688.03 3331.98 3690.88 3346.74 3693.99C3381.18 3701.27 3415.63 3708.47 3452.45 3716.16Z" fill="white"/>
<path d="M1225.75 3509.62C1225.75 3418.12 1225.74 3329.64 1225.74 3241.16C1225.74 3234.12 1225.14 3227.02 1225.83 3220.05C1227.59 3202.49 1219.4 3192.26 1204.01 3184.69C1182.39 3174.05 1161.62 3161.67 1140.53 3149.96C1136.14 3147.53 1131.81 3144.95 1127.69 3142.11C1119.27 3136.31 1116.1 3128.42 1119.44 3118.54C1121.33 3112.94 1123.74 3107.52 1125.54 3102.97C1157.34 3092.12 1381.42 3055.45 1408.32 3056.47C1414.73 3065.42 1412.17 3075.81 1412.22 3085.59C1412.47 3142.9 1412.34 3200.22 1412.34 3257.53C1412.34 3386.23 1412.31 3514.93 1412.36 3643.63C1412.37 3677.4 1409.71 3680.56 1446.55 3693.62C1472.03 3702.66 1497.01 3713.14 1523.71 3723.56C1522.84 3742.56 1521.26 3760.06 1512.46 3775.94C1502.19 3783.61 1490.75 3781.06 1479.96 3781.08C1397.48 3781.29 1315.01 3781.2 1232.53 3781.2C1202.36 3781.2 1172.18 3781.34 1142.01 3781.1C1133.19 3781.03 1124.38 3779.88 1114.41 3779.14C1112.75 3760.26 1116.25 3743.87 1120.35 3727.65C1122.22 3720.27 1128.48 3716.63 1135.31 3713.92C1154 3706.5 1172.59 3698.85 1191.26 3691.37C1195.92 3689.5 1200.6 3687.53 1205.45 3686.29C1220.6 3682.43 1225.97 3672.61 1225.84 3657.43C1225.42 3609.17 1225.72 3560.9 1225.75 3509.62Z" fill="white"/>
<path d="M1267.66 2717.69C1288.69 2703.87 1309.21 2708.87 1327.34 2716.58C1353.12 2727.54 1377.64 2741.79 1401.79 2756.16C1421.19 2767.71 1428.74 2786.67 1422.74 2808.26C1412.7 2844.35 1396.93 2877.84 1372.53 2906.97C1360.14 2921.76 1344.86 2927.11 1326.85 2923.08C1289.02 2914.63 1254.55 2899.23 1224.95 2873.23C1207.31 2857.73 1204.18 2840.17 1211.14 2818.93C1220.91 2789.07 1234.13 2761.02 1252.91 2735.74C1257.11 2730.09 1261.63 2724.67 1267.66 2717.69Z" fill="white"/>
<path d="M2454.93 345.98C2637.33 442.413 2818.32 538.129 2998.74 633.538C3001.05 651.749 3001.91 1870.04 2999.78 1911.15C2999.5 1911.77 2999.32 1912.47 2998.91 1913C2998.49 1913.56 2997.91 1914.03 2997.3 1914.39C2993.63 1916.55 2990.01 1918.79 2986.24 1920.78C2591.58 2129.61 2196.91 2338.42 1803.44 2546.6C1801.23 2546.6 1800.52 2546.64 1799.81 2546.59C1799.11 2546.54 1798.32 2546.56 1797.73 2546.25C1400.51 2336.17 1003.29 2126.06 606.105 1915.91C604.283 1914.95 602.794 1913.35 601 1911.93C601 1486.36 601 1060.82 601 634.346C1000.74 422.887 1400.38 211.484 1800.16 0C1811.25 5.67019 1821.38 10.7056 1831.38 15.9947C2034.4 123.366 2237.39 230.765 2440.39 338.166C2444.79 340.491 2449.14 342.896 2454.93 345.98ZM2872.97 704.105C2799.49 665.157 2726.03 626.166 2652.52 587.268C2384.24 445.299 2115.94 303.354 1847.64 161.425C1831.99 153.149 1816.23 145.087 1801.82 137.597C1798.63 138.22 1797.08 138.175 1795.89 138.805C1444.61 324.534 1093.36 510.307 742.124 696.098C735.845 699.419 729.674 702.948 723.466 706.404C722.85 706.746 722.225 707.171 721.789 707.708C721.369 708.226 721.189 708.938 720.037 711.465C720.037 715.214 720.035 720.882 720.037 726.549C720.166 1096.55 720.295 1466.54 720.451 1836.54C720.451 1837.22 720.775 1837.93 721.07 1838.57C721.351 1839.18 721.792 1839.72 723.039 1841.62C1081.13 2031.03 1440.4 2221.21 1800.12 2411.34C2160.43 2220.73 2519.78 2030.63 2880.12 1840.01C2880.12 1831.98 2880.12 1824.21 2880.12 1816.45C2880.12 1454.99 2880.12 1093.52 2880.11 732.057C2880.11 725.655 2880.33 719.221 2879.74 712.867C2879.52 710.431 2877.31 708.179 2872.97 704.105Z" fill="#FBBB59"/>
<path d="M1973.2 1113.79C2148.97 1043.29 2323.25 973.486 2497.54 903.721C2506.01 900.329 2514.62 897.269 2523.83 893.803C2562.04 942.415 2611.92 967.645 2672.37 971.103C2676.99 979.187 2675.06 987.19 2675.07 994.818C2675.23 1078.79 2675.17 1162.76 2675.17 1246.73C2675.17 1404.71 2675.17 1562.69 2675.17 1720.67C2675.17 1729.19 2675.17 1737.7 2675.17 1745.11C2673.87 1746.77 2673.45 1747.34 2672.99 1747.88C2672.53 1748.42 2672.13 1749.12 2671.53 1749.41C2442.88 1859.57 2214.21 1969.7 1985.52 2079.79C1981.7 2081.63 1977.63 2082.96 1973.4 2084.63C1962.86 2070.12 1952.95 2055.47 1941.98 2041.67C1930.83 2027.63 1917 2016.16 1901.41 2007.43C1885.98 1998.78 1869.74 1991.57 1852.17 1982.9C1851.87 1979.1 1851.04 1973.56 1851.04 1968.01C1850.97 1736.73 1850.98 1505.45 1851.01 1274.17C1851.01 1269.95 1851.37 1265.72 1851.62 1260.06C1877.26 1247.85 1900.06 1231.5 1916.3 1207.14C1932.15 1183.34 1938.96 1156.85 1940.62 1128.32C1950.23 1121.62 1961.44 1119.04 1973.2 1113.79Z" fill="#00C1CA"/>
<path d="M1751.82 1816.19C1751.82 1872.37 1751.82 1926.41 1751.82 1980.98C1747.71 1983.18 1744.26 1985.65 1740.41 1987C1695.61 2002.65 1661.33 2031.06 1636.98 2071.66C1634.84 2075.23 1632.35 2078.59 1630.22 2081.75C1615.47 2078.6 1529.28 2038 1396.18 1972.83C1318.3 1934.7 1239.87 1897.71 1161.72 1860.14C1084.24 1822.91 1006.79 1785.6 931.112 1749.17C929.512 1746.61 929.084 1746.06 928.798 1745.44C928.503 1744.79 928.181 1744.1 928.155 1743.41C927.935 1737.73 927.626 1732.05 927.628 1726.37C927.714 1476.68 927.827 1226.98 927.992 977.288C927.992 975.962 928.756 974.637 929.632 971.787C957.685 968.454 986.114 963.652 1012.32 950.087C1038.6 936.482 1060.52 917.775 1078.27 895.337C1100.3 901.581 1646.62 1120.64 1662.14 1129.38C1665.45 1189.44 1693.86 1233.68 1749.38 1259.12C1753.4 1267.77 1751.73 1276.42 1751.73 1284.77C1751.84 1445.55 1751.82 1606.32 1751.82 1767.1C1751.82 1782.75 1751.82 1798.4 1751.82 1816.19Z" fill="#00C1CA"/>
<path d="M1318.09 884.716C1249.95 857.456 1183.36 830.75 1115.71 803.623C1118.34 770.001 1113.17 738.065 1100.79 707.527C1105.72 700.573 1113.11 699.343 1119.42 696.597C1190.45 665.65 1261.55 634.852 1332.65 604.056C1468.33 545.291 1604.01 486.556 1739.69 427.8C1755.35 421.021 1771.18 414.612 1786.55 407.234C1796.3 402.557 1804.7 402.555 1814.79 407.133C1852.33 424.157 1890.32 440.191 1928.15 456.591C2110.76 535.764 2293.38 614.928 2475.97 694.135C2483.71 697.491 2491.27 701.251 2499.97 705.316C2489.52 736.389 2481.57 767.185 2485.85 799.119C2481.26 807.468 2472.86 808.476 2465.87 811.294C2384.78 843.989 2303.6 876.447 2222.44 908.97C2123.47 948.632 2024.5 988.305 1925.52 1027.94C1918.34 1030.81 1911.05 1033.4 1902.93 1036.46C1873.87 1008.55 1840.33 991.964 1799.68 992.28C1759.86 992.589 1726.9 1008.82 1698.09 1036.76C1571.4 986.505 1445.71 935.416 1318.09 884.716Z" fill="#00C1CA"/>
<path d="M850.991 829.99C838.37 806.938 835.777 784.326 842.722 760.541C854.946 718.67 896.499 691.917 939.899 698.184C982.516 704.337 1013.56 740.609 1014.88 783.74C1015.96 818.969 993.913 854.895 957.797 868.165C922.081 881.288 881.841 870.13 857.766 840.199C855.546 837.439 853.757 834.333 850.991 829.99Z" fill="#01BFC8"/>
<path d="M1764.98 2091.43C1788.72 2082.79 1811.07 2081.88 1833.27 2090.45C1871.44 2105.17 1894.52 2146.37 1887.51 2186.71C1880.18 2228.97 1845.13 2258.54 1802.92 2260.19C1766.38 2261.62 1728.72 2238.12 1716.81 2199.56C1705.81 2163.92 1715.15 2125.05 1750.57 2099.69C1754.6 2096.81 1759.15 2094.67 1764.98 2091.43Z" fill="#01BFC8"/>
<path d="M2686.39 698.133C2707.45 702.326 2724.16 710.611 2738.13 724.983C2768.11 755.821 2766.79 803.481 2749.35 831.656C2732.95 858.139 2697.87 882.268 2651.33 870.629C2610.87 860.511 2586.03 822.422 2585.94 785.893C2585.83 738.05 2625.71 697.632 2671.8 697.682C2676.06 697.686 2680.33 697.835 2686.39 698.133Z" fill="#01BFC8"/>
<path d="M1861.56 1093.55C1870.11 1107.29 1872.99 1120.77 1873.22 1135.36C1873.73 1168.8 1845.72 1202.41 1809.1 1205.8C1763.87 1209.98 1735.5 1179.29 1729.01 1148.1C1721.51 1112.1 1743.15 1075.81 1778.01 1064.17C1807.7 1054.26 1844.57 1066.54 1861.56 1093.55Z" fill="#01BEC7"/>
</svg>
