<svg width="2400" height="2546" viewBox="0 0 2400 2546" fill="none" xmlns="http://www.w3.org/2000/svg">
<path d="M1853.93 345.896C2036.33 442.306 2217.32 537.999 2397.74 633.384C2400.05 651.591 2400.91 1869.58 2398.78 1910.69C2398.5 1911.31 2398.32 1912.01 2397.91 1912.54C2397.49 1913.09 2396.91 1913.57 2396.3 1913.93C2392.63 1916.09 2389.01 1918.33 2385.24 1920.32C1990.58 2129.1 1595.91 2337.86 1202.44 2545.98C1200.23 2545.98 1199.52 2546.03 1198.81 2545.97C1198.11 2545.92 1197.32 2545.95 1196.73 2545.64C799.507 2335.6 402.294 2125.55 5.10542 1915.45C3.28254 1914.49 1.79434 1912.89 0 1911.47C0 1486 0 1060.56 0 634.192C399.741 422.784 799.376 211.433 1199.16 0C1210.25 5.66882 1220.38 10.703 1230.38 15.9908C1433.4 123.336 1636.39 230.71 1839.39 338.084C1843.79 340.409 1848.14 342.813 1853.93 345.896ZM2271.97 703.935C2198.49 664.996 2125.03 626.015 2051.52 587.126C1783.24 445.191 1514.94 303.281 1246.64 161.386C1230.99 153.112 1215.23 145.052 1200.82 137.564C1197.63 138.187 1196.08 138.141 1194.89 138.771C843.614 324.455 492.365 510.183 141.124 695.929C134.845 699.25 128.674 702.778 122.466 706.233C121.85 706.575 121.225 707 120.789 707.537C120.369 708.054 120.189 708.766 119.037 711.293C119.037 715.041 119.035 720.707 119.037 726.373C119.166 1096.28 119.295 1466.19 119.451 1836.1C119.451 1836.78 119.775 1837.49 120.07 1838.13C120.351 1838.74 120.792 1839.27 122.039 1841.17C480.131 2030.54 839.402 2220.67 1199.12 2410.76C1559.43 2220.2 1918.78 2030.14 2279.12 1839.57C2279.12 1831.53 2279.12 1823.77 2279.12 1816.01C2279.12 1454.64 2279.12 1093.26 2279.11 731.88C2279.11 725.479 2279.33 719.047 2278.74 712.694C2278.52 710.259 2276.31 708.007 2271.97 703.935Z" fill="#FBBB59"/>
<path d="M1372.2 1113.52C1547.97 1043.04 1722.25 973.251 1896.54 903.502C1905.01 900.111 1913.62 897.052 1922.83 893.587C1961.04 942.187 2010.92 967.411 2071.37 970.868C2075.99 978.95 2074.06 986.951 2074.07 994.577C2074.23 1078.53 2074.17 1162.48 2074.17 1246.43C2074.17 1404.37 2074.17 1562.32 2074.17 1720.26C2074.17 1728.77 2074.17 1737.28 2074.17 1744.69C2072.87 1746.34 2072.45 1746.92 2071.99 1747.46C2071.53 1747.99 2071.13 1748.7 2070.53 1748.98C1841.88 1859.12 1613.21 1969.23 1384.52 2079.29C1380.7 2081.13 1376.63 2082.46 1372.4 2084.13C1361.86 2069.62 1351.95 2054.98 1340.98 2041.17C1329.83 2027.14 1316 2015.68 1300.41 2006.94C1284.98 1998.3 1268.74 1991.09 1251.17 1982.42C1250.87 1978.62 1250.04 1973.08 1250.04 1967.53C1249.97 1736.31 1249.98 1505.09 1250.01 1273.87C1250.01 1269.64 1250.37 1265.41 1250.62 1259.76C1276.26 1247.54 1299.06 1231.2 1315.3 1206.85C1331.15 1183.05 1337.96 1156.57 1339.62 1128.05C1349.23 1121.35 1360.44 1118.77 1372.2 1113.52Z" fill="#00C1CA"/>
<path d="M1150.81 1815.75C1150.81 1871.91 1150.81 1925.94 1150.81 1980.5C1146.71 1982.7 1143.26 1985.17 1139.41 1986.52C1094.61 2002.16 1060.33 2030.57 1035.98 2071.16C1033.84 2074.73 1031.35 2078.09 1029.22 2081.25C1014.47 2078.1 928.281 2037.5 795.18 1972.35C717.304 1934.23 638.871 1897.25 560.716 1859.69C483.237 1822.47 405.793 1785.16 330.112 1748.75C328.512 1746.19 328.084 1745.63 327.798 1745.01C327.503 1744.37 327.181 1743.67 327.155 1742.99C326.934 1737.31 326.626 1731.63 326.628 1725.95C326.714 1476.32 326.827 1226.69 326.991 977.051C326.992 975.726 327.756 974.401 328.632 971.552C356.685 968.219 385.114 963.418 411.32 949.857C437.604 936.256 459.523 917.553 477.266 895.12C499.298 901.363 1045.62 1120.36 1061.14 1129.11C1064.45 1189.15 1092.86 1233.38 1148.38 1258.81C1152.4 1267.46 1150.73 1276.11 1150.73 1284.46C1150.84 1445.2 1150.82 1605.93 1150.82 1766.67C1150.82 1782.32 1150.82 1797.96 1150.81 1815.75Z" fill="#00C1CA"/>
<path d="M717.093 884.502C648.952 857.248 582.359 830.549 514.715 803.428C517.336 769.815 512.171 737.887 499.791 707.356C504.719 700.404 512.114 699.174 518.419 696.428C589.454 665.489 660.553 634.699 731.654 603.91C867.327 545.159 1003.01 486.438 1138.69 427.697C1154.35 420.919 1170.18 414.512 1185.55 407.135C1195.3 402.46 1203.7 402.458 1213.79 407.034C1251.33 424.055 1289.32 440.085 1327.15 456.48C1509.76 535.635 1692.38 614.779 1874.97 693.967C1882.71 697.323 1890.27 701.081 1898.97 705.146C1888.52 736.211 1880.57 767 1884.85 798.926C1880.26 807.272 1871.86 808.281 1864.87 811.098C1783.78 843.784 1702.6 876.235 1621.44 908.75C1522.47 948.402 1423.5 988.066 1324.52 1027.69C1317.34 1030.56 1310.05 1033.15 1301.93 1036.21C1272.87 1008.31 1239.33 991.724 1198.68 992.04C1158.86 992.349 1125.9 1008.57 1097.09 1036.5C970.398 986.267 844.707 935.19 717.093 884.502Z" fill="#00C1CA"/>
<path d="M249.991 829.79C237.37 806.743 234.777 784.137 241.721 760.357C253.946 718.496 295.499 691.75 338.899 698.015C381.516 704.167 412.556 740.43 413.877 783.551C414.956 818.771 392.913 854.688 356.797 867.955C321.081 881.075 280.841 869.92 256.766 839.996C254.546 837.237 252.756 834.131 249.991 829.79Z" fill="#01BFC8"/>
<path d="M1163.98 2090.93C1187.72 2082.28 1210.07 2081.38 1232.27 2089.94C1270.44 2104.66 1293.52 2145.85 1286.51 2186.18C1279.18 2228.44 1244.13 2257.99 1201.92 2259.64C1165.38 2261.08 1127.72 2237.58 1115.81 2199.03C1104.81 2163.39 1114.15 2124.53 1149.57 2099.18C1153.6 2096.3 1158.15 2094.16 1163.98 2090.93Z" fill="#01BFC8"/>
<path d="M2085.39 697.964C2106.45 702.156 2123.16 710.439 2137.13 724.808C2167.11 755.638 2165.79 803.286 2148.35 831.455C2131.95 857.931 2096.87 882.054 2050.33 870.418C2009.87 860.303 1985.03 822.223 1984.94 785.703C1984.83 737.871 2024.71 697.463 2070.8 697.513C2075.06 697.517 2079.33 697.666 2085.39 697.964Z" fill="#01BFC8"/>
<path d="M1260.56 1093.29C1269.11 1107.02 1271.99 1120.5 1272.22 1135.08C1272.73 1168.52 1244.72 1202.12 1208.1 1205.51C1162.87 1209.68 1134.5 1179.01 1128.01 1147.82C1120.51 1111.83 1142.15 1075.55 1177.01 1063.92C1206.7 1054.01 1243.57 1066.28 1260.56 1093.29Z" fill="#01BEC7"/>
</svg>
